<svg width="480" height="270" viewBox="0 0 480 270" fill="none" xmlns="http://www.w3.org/2000/svg">
<rect width="480" height="270" fill="black"/>
<path d="M152.875 143H149.195L149.219 140.469H152.875C153.867 140.469 154.699 140.25 155.371 139.812C156.043 139.367 156.551 138.73 156.895 137.902C157.238 137.066 157.41 136.066 157.41 134.902V134.023C157.41 133.125 157.312 132.332 157.117 131.645C156.922 130.957 156.633 130.379 156.25 129.91C155.875 129.441 155.41 129.086 154.855 128.844C154.301 128.602 153.664 128.48 152.945 128.48H149.125V125.938H152.945C154.086 125.938 155.125 126.129 156.062 126.512C157.008 126.895 157.824 127.445 158.512 128.164C159.207 128.875 159.738 129.727 160.105 130.719C160.48 131.711 160.668 132.82 160.668 134.047V134.902C160.668 136.121 160.48 137.23 160.105 138.23C159.738 139.223 159.207 140.074 158.512 140.785C157.824 141.496 157.004 142.043 156.051 142.426C155.098 142.809 154.039 143 152.875 143ZM151 125.938V143H147.777V125.938H151ZM168.871 143.234C167.91 143.234 167.047 143.078 166.281 142.766C165.516 142.453 164.863 142.02 164.324 141.465C163.793 140.902 163.383 140.25 163.094 139.508C162.812 138.758 162.672 137.953 162.672 137.094V136.625C162.672 135.648 162.812 134.762 163.094 133.965C163.375 133.16 163.773 132.469 164.289 131.891C164.805 131.312 165.422 130.867 166.141 130.555C166.859 130.242 167.652 130.086 168.52 130.086C169.418 130.086 170.211 130.238 170.898 130.543C171.586 130.84 172.16 131.262 172.621 131.809C173.082 132.355 173.43 133.012 173.664 133.777C173.898 134.535 174.016 135.375 174.016 136.297V137.598H164.078V135.465H170.969V135.23C170.953 134.738 170.859 134.289 170.688 133.883C170.516 133.469 170.25 133.141 169.891 132.898C169.531 132.648 169.066 132.523 168.496 132.523C168.035 132.523 167.633 132.625 167.289 132.828C166.953 133.023 166.672 133.305 166.445 133.672C166.227 134.031 166.062 134.461 165.953 134.961C165.844 135.461 165.789 136.016 165.789 136.625V137.094C165.789 137.625 165.859 138.117 166 138.57C166.148 139.023 166.363 139.418 166.645 139.754C166.934 140.082 167.277 140.34 167.676 140.527C168.082 140.707 168.543 140.797 169.059 140.797C169.707 140.797 170.293 140.672 170.816 140.422C171.348 140.164 171.809 139.785 172.199 139.285L173.758 140.902C173.492 141.293 173.133 141.668 172.68 142.027C172.234 142.387 171.695 142.68 171.062 142.906C170.43 143.125 169.699 143.234 168.871 143.234ZM180.133 140.656L183.086 130.32H186.32L181.973 143H180.004L180.133 140.656ZM177.977 130.32L180.965 140.68L181.07 143H179.09L174.73 130.32H177.977ZM191.23 130.32V143H188.125V130.32H191.23ZM187.914 127.004C187.914 126.543 188.07 126.16 188.383 125.855C188.703 125.551 189.133 125.398 189.672 125.398C190.211 125.398 190.637 125.551 190.949 125.855C191.27 126.16 191.43 126.543 191.43 127.004C191.43 127.457 191.27 127.836 190.949 128.141C190.637 128.445 190.211 128.598 189.672 128.598C189.133 128.598 188.703 128.445 188.383 128.141C188.07 127.836 187.914 127.457 187.914 127.004ZM199.387 140.797C199.824 140.797 200.215 140.711 200.559 140.539C200.902 140.367 201.176 140.125 201.379 139.812C201.59 139.5 201.703 139.137 201.719 138.723H204.637C204.621 139.582 204.379 140.352 203.91 141.031C203.441 141.711 202.816 142.25 202.035 142.648C201.262 143.039 200.395 143.234 199.434 143.234C198.457 143.234 197.605 143.07 196.879 142.742C196.152 142.414 195.547 141.957 195.062 141.371C194.586 140.785 194.227 140.105 193.984 139.332C193.75 138.559 193.633 137.73 193.633 136.848V136.473C193.633 135.59 193.75 134.762 193.984 133.988C194.227 133.215 194.586 132.535 195.062 131.949C195.547 131.363 196.152 130.906 196.879 130.578C197.605 130.25 198.453 130.086 199.422 130.086C200.445 130.086 201.344 130.285 202.117 130.684C202.898 131.082 203.508 131.645 203.945 132.371C204.391 133.098 204.621 133.953 204.637 134.938H201.719C201.703 134.484 201.602 134.078 201.414 133.719C201.227 133.359 200.961 133.07 200.617 132.852C200.273 132.633 199.855 132.523 199.363 132.523C198.84 132.523 198.402 132.633 198.051 132.852C197.707 133.07 197.438 133.371 197.242 133.754C197.055 134.129 196.922 134.551 196.844 135.02C196.773 135.48 196.738 135.965 196.738 136.473V136.848C196.738 137.363 196.773 137.855 196.844 138.324C196.922 138.793 197.055 139.215 197.242 139.59C197.438 139.957 197.707 140.25 198.051 140.469C198.402 140.688 198.848 140.797 199.387 140.797ZM212.395 143.234C211.434 143.234 210.57 143.078 209.805 142.766C209.039 142.453 208.387 142.02 207.848 141.465C207.316 140.902 206.906 140.25 206.617 139.508C206.336 138.758 206.195 137.953 206.195 137.094V136.625C206.195 135.648 206.336 134.762 206.617 133.965C206.898 133.16 207.297 132.469 207.812 131.891C208.328 131.312 208.945 130.867 209.664 130.555C210.383 130.242 211.176 130.086 212.043 130.086C212.941 130.086 213.734 130.238 214.422 130.543C215.109 130.84 215.684 131.262 216.145 131.809C216.605 132.355 216.953 133.012 217.188 133.777C217.422 134.535 217.539 135.375 217.539 136.297V137.598H207.602V135.465H214.492V135.23C214.477 134.738 214.383 134.289 214.211 133.883C214.039 133.469 213.773 133.141 213.414 132.898C213.055 132.648 212.59 132.523 212.02 132.523C211.559 132.523 211.156 132.625 210.812 132.828C210.477 133.023 210.195 133.305 209.969 133.672C209.75 134.031 209.586 134.461 209.477 134.961C209.367 135.461 209.312 136.016 209.312 136.625V137.094C209.312 137.625 209.383 138.117 209.523 138.57C209.672 139.023 209.887 139.418 210.168 139.754C210.457 140.082 210.801 140.34 211.199 140.527C211.605 140.707 212.066 140.797 212.582 140.797C213.23 140.797 213.816 140.672 214.34 140.422C214.871 140.164 215.332 139.785 215.723 139.285L217.281 140.902C217.016 141.293 216.656 141.668 216.203 142.027C215.758 142.387 215.219 142.68 214.586 142.906C213.953 143.125 213.223 143.234 212.395 143.234ZM228.625 133.027V143H225.531V130.32H228.438L228.625 133.027ZM228.133 136.203H227.219C227.227 135.281 227.352 134.445 227.594 133.695C227.836 132.945 228.176 132.301 228.613 131.762C229.059 131.223 229.586 130.809 230.195 130.52C230.805 130.23 231.484 130.086 232.234 130.086C232.844 130.086 233.395 130.172 233.887 130.344C234.379 130.516 234.801 130.789 235.152 131.164C235.512 131.539 235.785 132.031 235.973 132.641C236.168 133.242 236.266 133.984 236.266 134.867V143H233.148V134.844C233.148 134.266 233.062 133.809 232.891 133.473C232.727 133.137 232.484 132.898 232.164 132.758C231.852 132.617 231.465 132.547 231.004 132.547C230.527 132.547 230.109 132.645 229.75 132.84C229.398 133.027 229.102 133.289 228.859 133.625C228.625 133.961 228.445 134.348 228.32 134.785C228.195 135.223 228.133 135.695 228.133 136.203ZM238.445 136.789V136.543C238.445 135.613 238.578 134.758 238.844 133.977C239.109 133.188 239.496 132.504 240.004 131.926C240.512 131.348 241.133 130.898 241.867 130.578C242.602 130.25 243.438 130.086 244.375 130.086C245.328 130.086 246.172 130.25 246.906 130.578C247.648 130.898 248.273 131.348 248.781 131.926C249.289 132.504 249.676 133.188 249.941 133.977C250.207 134.758 250.34 135.613 250.34 136.543V136.789C250.34 137.711 250.207 138.566 249.941 139.355C249.676 140.137 249.289 140.82 248.781 141.406C248.273 141.984 247.652 142.434 246.918 142.754C246.184 143.074 245.344 143.234 244.398 143.234C243.461 143.234 242.621 143.074 241.879 142.754C241.137 142.434 240.512 141.984 240.004 141.406C239.496 140.82 239.109 140.137 238.844 139.355C238.578 138.566 238.445 137.711 238.445 136.789ZM241.539 136.543V136.789C241.539 137.344 241.594 137.863 241.703 138.348C241.812 138.832 241.98 139.258 242.207 139.625C242.434 139.992 242.727 140.281 243.086 140.492C243.453 140.695 243.891 140.797 244.398 140.797C244.898 140.797 245.328 140.695 245.688 140.492C246.047 140.281 246.34 139.992 246.566 139.625C246.801 139.258 246.973 138.832 247.082 138.348C247.191 137.863 247.246 137.344 247.246 136.789V136.543C247.246 135.996 247.191 135.484 247.082 135.008C246.973 134.523 246.801 134.098 246.566 133.73C246.34 133.355 246.043 133.062 245.676 132.852C245.316 132.633 244.883 132.523 244.375 132.523C243.875 132.523 243.445 132.633 243.086 132.852C242.727 133.062 242.434 133.355 242.207 133.73C241.98 134.098 241.812 134.523 241.703 135.008C241.594 135.484 241.539 135.996 241.539 136.543ZM258.59 130.32V132.547H251.324V130.32H258.59ZM253.27 127.203H256.375V139.344C256.375 139.719 256.426 140.008 256.527 140.211C256.629 140.414 256.781 140.551 256.984 140.621C257.188 140.691 257.43 140.727 257.711 140.727C257.914 140.727 258.102 140.715 258.273 140.691C258.445 140.668 258.59 140.645 258.707 140.621L258.719 142.941C258.461 143.027 258.168 143.098 257.84 143.152C257.52 143.207 257.156 143.234 256.75 143.234C256.055 143.234 255.445 143.117 254.922 142.883C254.398 142.641 253.992 142.254 253.703 141.723C253.414 141.184 253.27 140.473 253.27 139.59V127.203ZM273.648 128.527L268.785 143H265.375L271.75 125.938H273.93L273.648 128.527ZM277.715 143L272.828 128.527L272.535 125.938H274.727L281.137 143H277.715ZM277.492 136.66V139.203H268.34V136.66H277.492ZM287.863 140.797C288.301 140.797 288.691 140.711 289.035 140.539C289.379 140.367 289.652 140.125 289.855 139.812C290.066 139.5 290.18 139.137 290.195 138.723H293.113C293.098 139.582 292.855 140.352 292.387 141.031C291.918 141.711 291.293 142.25 290.512 142.648C289.738 143.039 288.871 143.234 287.91 143.234C286.934 143.234 286.082 143.07 285.355 142.742C284.629 142.414 284.023 141.957 283.539 141.371C283.062 140.785 282.703 140.105 282.461 139.332C282.227 138.559 282.109 137.73 282.109 136.848V136.473C282.109 135.59 282.227 134.762 282.461 133.988C282.703 133.215 283.062 132.535 283.539 131.949C284.023 131.363 284.629 130.906 285.355 130.578C286.082 130.25 286.93 130.086 287.898 130.086C288.922 130.086 289.82 130.285 290.594 130.684C291.375 131.082 291.984 131.645 292.422 132.371C292.867 133.098 293.098 133.953 293.113 134.938H290.195C290.18 134.484 290.078 134.078 289.891 133.719C289.703 133.359 289.438 133.07 289.094 132.852C288.75 132.633 288.332 132.523 287.84 132.523C287.316 132.523 286.879 132.633 286.527 132.852C286.184 133.07 285.914 133.371 285.719 133.754C285.531 134.129 285.398 134.551 285.32 135.02C285.25 135.48 285.215 135.965 285.215 136.473V136.848C285.215 137.363 285.25 137.855 285.32 138.324C285.398 138.793 285.531 139.215 285.719 139.59C285.914 139.957 286.184 140.25 286.527 140.469C286.879 140.688 287.324 140.797 287.863 140.797ZM301.176 130.32V132.547H293.91V130.32H301.176ZM295.855 127.203H298.961V139.344C298.961 139.719 299.012 140.008 299.113 140.211C299.215 140.414 299.367 140.551 299.57 140.621C299.773 140.691 300.016 140.727 300.297 140.727C300.5 140.727 300.688 140.715 300.859 140.691C301.031 140.668 301.176 140.645 301.293 140.621L301.305 142.941C301.047 143.027 300.754 143.098 300.426 143.152C300.105 143.207 299.742 143.234 299.336 143.234C298.641 143.234 298.031 143.117 297.508 142.883C296.984 142.641 296.578 142.254 296.289 141.723C296 141.184 295.855 140.473 295.855 139.59V127.203ZM306.52 130.32V143H303.414V130.32H306.52ZM303.203 127.004C303.203 126.543 303.359 126.16 303.672 125.855C303.992 125.551 304.422 125.398 304.961 125.398C305.5 125.398 305.926 125.551 306.238 125.855C306.559 126.16 306.719 126.543 306.719 127.004C306.719 127.457 306.559 127.836 306.238 128.141C305.926 128.445 305.5 128.598 304.961 128.598C304.422 128.598 303.992 128.445 303.672 128.141C303.359 127.836 303.203 127.457 303.203 127.004ZM313.68 140.656L316.633 130.32H319.867L315.52 143H313.551L313.68 140.656ZM311.523 130.32L314.512 140.68L314.617 143H312.637L308.277 130.32H311.523ZM327.027 143.234C326.066 143.234 325.203 143.078 324.438 142.766C323.672 142.453 323.02 142.02 322.48 141.465C321.949 140.902 321.539 140.25 321.25 139.508C320.969 138.758 320.828 137.953 320.828 137.094V136.625C320.828 135.648 320.969 134.762 321.25 133.965C321.531 133.16 321.93 132.469 322.445 131.891C322.961 131.312 323.578 130.867 324.297 130.555C325.016 130.242 325.809 130.086 326.676 130.086C327.574 130.086 328.367 130.238 329.055 130.543C329.742 130.84 330.316 131.262 330.777 131.809C331.238 132.355 331.586 133.012 331.82 133.777C332.055 134.535 332.172 135.375 332.172 136.297V137.598H322.234V135.465H329.125V135.23C329.109 134.738 329.016 134.289 328.844 133.883C328.672 133.469 328.406 133.141 328.047 132.898C327.688 132.648 327.223 132.523 326.652 132.523C326.191 132.523 325.789 132.625 325.445 132.828C325.109 133.023 324.828 133.305 324.602 133.672C324.383 134.031 324.219 134.461 324.109 134.961C324 135.461 323.945 136.016 323.945 136.625V137.094C323.945 137.625 324.016 138.117 324.156 138.57C324.305 139.023 324.52 139.418 324.801 139.754C325.09 140.082 325.434 140.34 325.832 140.527C326.238 140.707 326.699 140.797 327.215 140.797C327.863 140.797 328.449 140.672 328.973 140.422C329.504 140.164 329.965 139.785 330.355 139.285L331.914 140.902C331.648 141.293 331.289 141.668 330.836 142.027C330.391 142.387 329.852 142.68 329.219 142.906C328.586 143.125 327.855 143.234 327.027 143.234Z" fill="white"/>
</svg>
